<svg xmlns="http://www.w3.org/2000/svg" width="900" height="520" viewBox="0 0 900 520" role="img" aria-labelledby="title desc">
  <title id="title">Tiny Multiscreen All-Exam CUDA Train Loss Curve</title>
  <desc id="desc">Training cross-entropy loss over 80 CUDA release-training steps on the extracted TCAS68 all-exam training split. Test data is evaluated once after training.</desc>
  <rect width="900" height="520" fill="#ffffff"/>
  <text x="70" y="28" font-family="Arial, sans-serif" font-size="20" font-weight="700" fill="#111827">Tiny Multiscreen LM CUDA Train Loss on TCAS68 All-Exam Data</text>
  <text x="70" y="506" font-family="Arial, sans-serif" font-size="13" fill="#374151">Training step</text>
  <g transform="translate(18 290) rotate(-90)">
    <text font-family="Arial, sans-serif" font-size="13" fill="#374151">Train cross-entropy loss</text>
  </g>

  <line x1="70" y1="450" x2="870" y2="450" stroke="#111827" stroke-width="1.5"/>
  <line x1="70" y1="40" x2="70" y2="450" stroke="#111827" stroke-width="1.5"/>

  <g font-family="Arial, sans-serif" font-size="12" fill="#4b5563">
    <line x1="70" y1="450.0" x2="870" y2="450.0" stroke="#e5e7eb"/>
    <text x="45" y="454">2</text>
    <line x1="70" y1="391.4" x2="870" y2="391.4" stroke="#e5e7eb"/>
    <text x="45" y="395">3</text>
    <line x1="70" y1="332.9" x2="870" y2="332.9" stroke="#e5e7eb"/>
    <text x="45" y="337">4</text>
    <line x1="70" y1="274.3" x2="870" y2="274.3" stroke="#e5e7eb"/>
    <text x="45" y="278">5</text>
    <line x1="70" y1="215.7" x2="870" y2="215.7" stroke="#e5e7eb"/>
    <text x="45" y="220">6</text>
    <line x1="70" y1="157.1" x2="870" y2="157.1" stroke="#e5e7eb"/>
    <text x="45" y="161">7</text>
    <line x1="70" y1="98.6" x2="870" y2="98.6" stroke="#e5e7eb"/>
    <text x="45" y="103">8</text>
    <line x1="70" y1="40.0" x2="870" y2="40.0" stroke="#e5e7eb"/>
    <text x="45" y="44">9</text>
  </g>

  <g font-family="Arial, sans-serif" font-size="12" fill="#4b5563">
    <line x1="70.0" y1="450" x2="70.0" y2="456" stroke="#111827"/>
    <text x="66" y="474">0</text>
    <line x1="171.3" y1="450" x2="171.3" y2="456" stroke="#111827"/>
    <text x="164" y="474">10</text>
    <line x1="272.5" y1="450" x2="272.5" y2="456" stroke="#111827"/>
    <text x="266" y="474">20</text>
    <line x1="373.8" y1="450" x2="373.8" y2="456" stroke="#111827"/>
    <text x="367" y="474">30</text>
    <line x1="475.1" y1="450" x2="475.1" y2="456" stroke="#111827"/>
    <text x="468" y="474">40</text>
    <line x1="576.3" y1="450" x2="576.3" y2="456" stroke="#111827"/>
    <text x="570" y="474">50</text>
    <line x1="677.6" y1="450" x2="677.6" y2="456" stroke="#111827"/>
    <text x="671" y="474">60</text>
    <line x1="778.9" y1="450" x2="778.9" y2="456" stroke="#111827"/>
    <text x="772" y="474">70</text>
    <line x1="870.0" y1="450" x2="870.0" y2="456" stroke="#111827"/>
    <text x="863" y="474">79</text>
  </g>

  <polyline fill="none" stroke="#2563eb" stroke-width="3" stroke-linecap="round" stroke-linejoin="round" points="70.0,81.8 120.6,212.9 171.3,308.9 221.9,369.4 272.5,394.0 323.2,363.2 373.8,364.5 424.4,371.1 475.1,390.5 525.7,397.0 576.3,389.4 627.0,411.7 677.6,402.2 728.2,408.7 778.9,417.5 829.5,435.7 870.0,427.8"/>
  <g fill="#2563eb">
    <circle cx="70.0" cy="81.8" r="4"/>
    <circle cx="120.6" cy="212.9" r="4"/>
    <circle cx="171.3" cy="308.9" r="4"/>
    <circle cx="221.9" cy="369.4" r="4"/>
    <circle cx="272.5" cy="394.0" r="4"/>
    <circle cx="323.2" cy="363.2" r="4"/>
    <circle cx="373.8" cy="364.5" r="4"/>
    <circle cx="424.4" cy="371.1" r="4"/>
    <circle cx="475.1" cy="390.5" r="4"/>
    <circle cx="525.7" cy="397.0" r="4"/>
    <circle cx="576.3" cy="389.4" r="4"/>
    <circle cx="627.0" cy="411.7" r="4"/>
    <circle cx="677.6" cy="402.2" r="4"/>
    <circle cx="728.2" cy="408.7" r="4"/>
    <circle cx="778.9" cy="417.5" r="4"/>
    <circle cx="829.5" cy="435.7" r="4"/>
    <circle cx="870.0" cy="427.8" r="4"/>
  </g>

  <rect x="610" y="54" width="250" height="46" fill="#ffffff" stroke="#d1d5db" rx="4"/>
  <line x1="626" y1="78" x2="666" y2="78" stroke="#2563eb" stroke-width="3"/>
  <circle cx="646" cy="78" r="4" fill="#2563eb"/>
  <text x="676" y="82" font-family="Arial, sans-serif" font-size="13" fill="#111827">Train loss only</text>
  <text x="626" y="116" font-family="Arial, sans-serif" font-size="12" fill="#6b7280">Final test metrics are reported separately.</text>
</svg>
