<svg xmlns="http://www.w3.org/2000/svg" width="720" height="420" viewBox="0 0 720 420" role="img" aria-label="Training loss curve for Multiscreen and Transformer">
  <rect width="720" height="420" fill="#101418"/>
  <text x="70" y="28" fill="#f4f6f8" font-family="Segoe UI, Arial, sans-serif" font-size="18" font-weight="700">Khan Academy training loss, CUDA, 300 steps</text>
  <line x1="70" y1="340" x2="660" y2="340" stroke="#7b8794" stroke-width="1"/>
  <line x1="70" y1="40" x2="70" y2="340" stroke="#7b8794" stroke-width="1"/>
  <g fill="#aeb8c2" font-family="Segoe UI, Arial, sans-serif" font-size="12">
    <text x="46" y="344">2</text>
    <text x="46" y="269">4</text>
    <text x="46" y="194">6</text>
    <text x="46" y="119">8</text>
    <text x="40" y="44">10</text>
    <text x="65" y="364">0</text>
    <text x="256" y="364">100</text>
    <text x="454" y="364">200</text>
    <text x="648" y="364">299</text>
  </g>
  <g stroke="#27313a" stroke-width="1">
    <line x1="70" y1="265" x2="660" y2="265"/>
    <line x1="70" y1="190" x2="660" y2="190"/>
    <line x1="70" y1="115" x2="660" y2="115"/>
    <line x1="267.3" y1="40" x2="267.3" y2="340"/>
    <line x1="464.6" y1="40" x2="464.6" y2="340"/>
  </g>
  <polyline fill="none" stroke="#35d07f" stroke-width="3" points="70,51.7 267.3,193.9 464.6,182.8 660,328.6"/>
  <polyline fill="none" stroke="#61a8ff" stroke-width="3" points="70,76.6 267.3,186.4 464.6,144.9 660,201.8"/>
  <g>
    <circle cx="70" cy="51.7" r="4" fill="#35d07f"/>
    <circle cx="267.3" cy="193.9" r="4" fill="#35d07f"/>
    <circle cx="464.6" cy="182.8" r="4" fill="#35d07f"/>
    <circle cx="660" cy="328.6" r="4" fill="#35d07f"/>
    <circle cx="70" cy="76.6" r="4" fill="#61a8ff"/>
    <circle cx="267.3" cy="186.4" r="4" fill="#61a8ff"/>
    <circle cx="464.6" cy="144.9" r="4" fill="#61a8ff"/>
    <circle cx="660" cy="201.8" r="4" fill="#61a8ff"/>
  </g>
  <g font-family="Segoe UI, Arial, sans-serif" font-size="13">
    <rect x="475" y="52" width="152" height="56" rx="8" fill="#172029" stroke="#2f3b46"/>
    <circle cx="492" cy="72" r="5" fill="#35d07f"/>
    <text x="506" y="76" fill="#f4f6f8">Multiscreen</text>
    <circle cx="492" cy="94" r="5" fill="#61a8ff"/>
    <text x="506" y="98" fill="#f4f6f8">Transformer</text>
  </g>
  <text x="325" y="398" fill="#aeb8c2" font-family="Segoe UI, Arial, sans-serif" font-size="12">step</text>
  <text x="14" y="196" fill="#aeb8c2" font-family="Segoe UI, Arial, sans-serif" font-size="12" transform="rotate(-90 14 196)">train loss</text>
</svg>
