<svg xmlns="http://www.w3.org/2000/svg" width="900" height="520" viewBox="0 0 900 520" role="img" aria-labelledby="title desc">
  <title id="title">Tiny Multiscreen SAT CUDA Train Loss Curve</title>
  <desc id="desc">Training cross-entropy loss over 999 CUDA release-training steps on the SAT World &amp; US History dataset. Test data is evaluated once after training.</desc>
  <rect width="900" height="520" fill="#ffffff"/>
  <text x="70" y="28" font-family="Arial, sans-serif" font-size="20" font-weight="700" fill="#111827">Tiny Multiscreen LM CUDA Train Loss on SAT Data</text>
  <text x="70" y="506" font-family="Arial, sans-serif" font-size="13" fill="#374151">Training step</text>
  <g transform="translate(18 290) rotate(-90)">
    <text font-family="Arial, sans-serif" font-size="13" fill="#374151">Train cross-entropy loss</text>
  </g>

  <line x1="70" y1="450" x2="870" y2="450" stroke="#111827" stroke-width="1.5"/>
  <line x1="70" y1="40" x2="70" y2="450" stroke="#111827" stroke-width="1.5"/>

  <g font-family="Arial, sans-serif" font-size="12" fill="#4b5563">
    <line x1="70" y1="450.0" x2="870" y2="450.0" stroke="#e5e7eb"/>
    <text x="45" y="454">4</text>
    <line x1="70" y1="391.4" x2="870" y2="391.4" stroke="#e5e7eb"/>
    <text x="45" y="395">5</text>
    <line x1="70" y1="332.9" x2="870" y2="332.9" stroke="#e5e7eb"/>
    <text x="45" y="337">6</text>
    <line x1="70" y1="274.3" x2="870" y2="274.3" stroke="#e5e7eb"/>
    <text x="45" y="278">7</text>
    <line x1="70" y1="215.7" x2="870" y2="215.7" stroke="#e5e7eb"/>
    <text x="45" y="220">8</text>
    <line x1="70" y1="157.1" x2="870" y2="157.1" stroke="#e5e7eb"/>
    <text x="45" y="161">9</text>
    <line x1="70" y1="98.6" x2="870" y2="98.6" stroke="#e5e7eb"/>
    <text x="45" y="103">10</text>
    <line x1="70" y1="40.0" x2="870" y2="40.0" stroke="#e5e7eb"/>
    <text x="45" y="44">11</text>
  </g>

  <g font-family="Arial, sans-serif" font-size="12" fill="#4b5563">
    <line x1="70.0" y1="450" x2="70.0" y2="456" stroke="#111827"/>
    <text x="66" y="474">0</text>
    <line x1="150.0" y1="450" x2="150.0" y2="456" stroke="#111827"/>
    <text x="140" y="474">100</text>
    <line x1="230.0" y1="450" x2="230.0" y2="456" stroke="#111827"/>
    <text x="220" y="474">200</text>
    <line x1="310.0" y1="450" x2="310.0" y2="456" stroke="#111827"/>
    <text x="300" y="474">300</text>
    <line x1="390.0" y1="450" x2="390.0" y2="456" stroke="#111827"/>
    <text x="380" y="474">400</text>
    <line x1="470.0" y1="450" x2="470.0" y2="456" stroke="#111827"/>
    <text x="460" y="474">500</text>
    <line x1="550.0" y1="450" x2="550.0" y2="456" stroke="#111827"/>
    <text x="540" y="474">600</text>
    <line x1="630.0" y1="450" x2="630.0" y2="456" stroke="#111827"/>
    <text x="620" y="474">700</text>
    <line x1="710.0" y1="450" x2="710.0" y2="456" stroke="#111827"/>
    <text x="700" y="474">800</text>
    <line x1="790.0" y1="450" x2="790.0" y2="456" stroke="#111827"/>
    <text x="780" y="474">900</text>
    <line x1="870.0" y1="450" x2="870.0" y2="456" stroke="#111827"/>
    <text x="863" y="474">999</text>
  </g>

  <polyline fill="none" stroke="#2563eb" stroke-width="3" stroke-linecap="round" stroke-linejoin="round" points="70.0,65.6 110.0,234.8 150.0,244.9 190.0,262.4 230.0,289.0 270.0,298.5 310.0,249.4 350.0,259.7 390.0,270.6 430.0,286.6 470.0,274.4 510.0,269.6 550.0,314.2 590.0,284.4 630.0,291.2 670.0,292.3 710.0,287.4 750.0,276.2 790.0,286.5 830.0,275.4 870.0,291.4"/>

  <rect x="610" y="54" width="250" height="46" fill="#ffffff" stroke="#d1d5db" rx="4"/>
  <line x1="626" y1="78" x2="666" y2="78" stroke="#2563eb" stroke-width="3"/>
  <text x="676" y="82" font-family="Arial, sans-serif" font-size="13" fill="#111827">Train loss (sampled)</text>
  <text x="626" y="116" font-family="Arial, sans-serif" font-size="12" fill="#6b7280">Sampled every 100 steps. Final val loss: 5.84 (21.4% acc). Test loss: 5.85 (22.2% acc).</text>
</svg>
